# xmcd
# 
# Track frame offsets:
#     150
#     14835
#     25994
#     39411
#     53399
#     67687
#     80707
#     94612
#     108440
#     120352
#     134096
#     147395
#     161167
#     173860
#     186546
#     201677
#     213812
#     228483
#     239936
#     253085
#     267066
#     281145
#     293872
#     307442
#     320895
# 
# Disc length: 4408
# 
# Revision: 2
# Processed by: cddbd v1.5.2PL0 Copyright (c) Steve Scherf et al.
# Submitted via: fre:ac v1.0.31
# 
DISCID=90113619
DTITLE=Blues - Black and White Blues Guitars Disc 1 1
DYEAR=0
DGENRE=Blues
TTITLE0=Lonnie Johnson/Blind Willie Dunn - Guitar Blues
TTITLE1=Blind Willie McTell - Statesboro Blues
TTITLE2=Skip James - Devil Got My Woman
TTITLE3=Big Bill Broozny - Worrying You Off My Mind
TTITLE4=Charley Patton - A Spoonful of Blues
TTITLE5=Kokomo Arnold - Old Original Kokomo Blues
TTITLE6=Blind Boy Fuller - Evil Hearted Woman
TTITLE7=Joe McCoy - Please Baby
TTITLE8=Robert Johnson - When You've Got a Good Friend
TTITLE9=Robert Lockwood Jr - Little Boy Blue
TTITLE10=Arthur Big Boy Cruddup - Rock Me Mama
TTITLE11=T-Bone Walker - Stormy Monday
TTITLE12=Robert Nighthawk - My Sweet Lovin Woman
TTITLE13=Muddy Waters - Little Geneva
TTITLE14=Tampa Red - Love Her with a Feeling
TTITLE15=Jimmy Rogers - Goin Away Baby
TTITLE16=Elmore James - I Believe
TTITLE17=Johnny Shines - Ramblin
TTITLE18=Lightnin Hopkins - Bald Headed Woman
TTITLE19=Earl Hooker - Sweet Black Angel
TTITLE20=Homesick James/Johnny Shines - Homesick
TTITLE21=Elmore James/Big Joe Turner - TV Mama
TTITLE22=Guitar Slim - Things That I Used To Do
TTITLE23=Albert King - Bad Luck
TTITLE24=Willie Johnson/Howlin Wolf - Work for Your Money
EXTD=
EXTT0=
EXTT1=
EXTT2=
EXTT3=
EXTT4=
EXTT5=
EXTT6=
EXTT7=
EXTT8=
EXTT9=
EXTT10=
EXTT11=
EXTT12=
EXTT13=
EXTT14=
EXTT15=
EXTT16=
EXTT17=
EXTT18=
EXTT19=
EXTT20=
EXTT21=
EXTT22=
EXTT23=
EXTT24=
PLAYORDER=
